<svg id="レイヤー_1" data-name="レイヤー 1" xmlns="http://www.w3.org/2000/svg" viewBox="0 0 1118.52 1275.31"><text x="-6601.97" y="-6188.34"/><text x="-6601.97" y="-6188.34"/><text x="-6601.97" y="-6188.34"/><text x="-6601.97" y="-6188.34"/><text x="-6601.97" y="-6188.34"/><path d="M6901.44,6896v-88.82q0-16.3,17.93-16.3,17,0,17.05,16.3v86l113-8.51h1.35a12.47,12.47,0,0,1,6.28,1.66q7.84,4.24,7.85,14.41,0,8.51-6.06,13.46a12.61,12.61,0,0,1-7.62,2.84l-114.8,8.74v92.37L7097.18,7008a14.87,14.87,0,0,1,7.4,1.65q8.07,4.26,8.08,14.65,0,15.36-13.68,16.3l-162.56,10.16V7201a16.29,16.29,0,0,1-3.37,10.4q-4.94,6.14-13.9,6.14-9.64,0-14.8-6.85a16.08,16.08,0,0,1-2.91-9.69V7052.89l-165.26,10.4h-1.12a13.51,13.51,0,0,1-9.19-3.31q-5.39-4.48-5.38-13,0-15.36,13.9-16.07l167-10.63v-91.9l-89.69,6.86q-18.16,34.48-37.9,56.93-8.07,9.45-15.24,9.45a12.07,12.07,0,0,1-8.08-3.07,12.77,12.77,0,0,1-3.81-9.45q0-5.2,8.75-18.19,26-39.69,43.94-94,4.26-13.71,7.85-29.06,3.81-16.07,16.82-16.07a16.61,16.61,0,0,1,9.19,2.6q8.3,5,8.3,15.83,0,13.95-14.58,51.5Z" transform="translate(-6601.97 -6188.34)"/><path d="M7216.28,7105.34v204.58l168.16-8.27h.9a15.15,15.15,0,0,1,12.78,4.49q4.48,4.48,4.49,12.52,0,17.25-16.82,17.95l-362.35,16.3-1.34.24q-5.61.47-11.21-3.55-5.39-3.77-5.38-13,0-16.77,16.36-17.48l158.53-7.56V7107.93l-106.06,7.56h-2.46q-15.93,0-15.92-15.82,0-16.77,16.14-18l246.2-18.42,2-.24q9.63-.71,14.57,7.56a20.23,20.23,0,0,1,2.69,10.63q0,15.59-16.59,16.77Z" transform="translate(-6601.97 -6188.34)"/><path d="M7518.24,7250.8q-22.65,92.85-90.81,156.15a352.08,352.08,0,0,1-72.65,52.21q-7,3.78-12.33,3.78-6.73,0-9.87-5.43a16.79,16.79,0,0,1-2.47-8.51q0-5.67,5.61-10.15,1.13-.94,13.23-8.27,66.6-39.93,108.3-115.05,23.76-43,32.06-101.58l-137.89,10.16h-2.25q-13,0-13-17.25,0-14.64,15.25-15.59l141.7-10.39q2-26.94,2-55.05V7080q0-8.51,6.06-13.23a17.4,17.4,0,0,1,11.21-3.78,18,18,0,0,1,11.21,3.78,15.44,15.44,0,0,1,6.5,13.23v44.89q0,28.59-1.57,53.39l152-11.34h1.79q8.29,0,12.56,8a17.6,17.6,0,0,1,1.79,8q0,15.83-14.57,16.77l-152.25,11.34c.29.79,1.57,3.78,3.81,9q17.94,42.52,56.28,98,35.86,52,74.67,86.93,20.85,18.68,37.89,28.59,17.94,9.92,17.94,16.77,0,5.19-10.09,7.56-24.45,5.67-37.22,5.67a29.4,29.4,0,0,1-20.18-7.8q-26.46-24.09-71.53-91.89A848.13,848.13,0,0,1,7518.24,7250.8Z" transform="translate(-6601.97 -6188.34)"/><text x="-6601.97" y="-6188.34"/></svg>