<svg xmlns="http://www.w3.org/2000/svg" viewBox="0 0 665.66 90.97"><defs><style>.cls-1{fill:#231815;}.cls-2{fill:#fff;}</style></defs><g id="レイヤー_2" data-name="レイヤー 2"><g id="レイヤー_1-2" data-name="レイヤー 1"><path class="cls-1" d="M60.27,91l-1.18-4.24A39.45,39.45,0,0,1,40.45,91C26.83,91,16.1,85.61,8.55,75,2.88,67.07,0,57.2,0,45.7,0,32.8,4,21.87,12,13.19S30.28,0,42.42,0A43.31,43.31,0,0,1,59.76,3.51L60,1.83H76.82v35.1H60.68L59.32,31.5c-1.48-5.92-4.7-12-17.37-12-6.46,0-11.11,2.37-14.64,7.46C24,31.65,22.39,37.87,22.39,45.51c0,7.83,1.73,14,5.29,18.89s7.6,7,13,7c5,0,8.89-1.21,11.87-3.69s3.7-4.07,3.7-4.66v-5.3a36,36,0,0,0-5.6-1L44.34,56V39H87V56l-6.28.79a20.17,20.17,0,0,0-3.51.7c0,.1,0,.22,0,.34V91Z"/><path class="cls-2" d="M65.71,83.81l-2.58-9.24q-8.25,9.24-22.68,9.24-16.83,0-26.07-12.94Q7.17,60.75,7.17,45.7,7.17,29.05,17.29,18A32.66,32.66,0,0,1,42.42,7.17a35.58,35.58,0,0,1,18.89,5.2,5.54,5.54,0,0,0,2.43.94c1.32,0,2.16-1.44,2.54-4.32h3.37V29.76H66.28Q61.91,12.38,42,12.37q-13.23,0-20.53,10.55-6.2,8.8-6.19,22.59,0,14,6.65,23.11,7.23,10,18.8,10,10,0,16.45-5.34t6.29-10.17v-6q0-3.89-2.16-5.06-3.13-1.64-9.75-2.44V46.17H79.82v3.46q-6,.75-8.34,2.82Q70,53.76,70,57.79v26Z"/><path class="cls-1" d="M98.06,89.14v-17l6.38-.7c1.4-.16,2.42-.32,3.14-.47V53.8L88.7,23.67A7.7,7.7,0,0,0,86,20.85a12.78,12.78,0,0,0-4.43-1l-6.53-.58V1.88H116.8V19.35l-5.93.44,8.31,12.74,8.37-12.72-6.28-.54V1.88h39.59V19.54l-6.83.32a5.82,5.82,0,0,0-3.26,1,15.76,15.76,0,0,0-3.1,3.83L128.8,53.07V70.9c.72.15,1.75.32,3.18.49l6.34.74v17Z"/><path class="cls-2" d="M82.21,9h27.42V12.7q-8.89.65-8.9,3.47a4.82,4.82,0,0,0,.84,2.48l17.58,27,17.06-25.92A4.64,4.64,0,0,0,137.1,17q0-3.57-8.67-4.31V9H153.7V12.7a12.85,12.85,0,0,0-7.13,2.39,22.1,22.1,0,0,0-4.87,5.67L121.63,50.9V71c0,2.75.61,4.6,1.83,5.53s3.69,1.55,7.69,2V82H105.23V78.51c4.25-.47,6.9-1.19,8-2.16s1.54-2.73,1.54-5.39V51.74l-20-31.87a14.26,14.26,0,0,0-5.68-5.49,19.75,19.75,0,0,0-6.89-1.68Z"/><path class="cls-1" d="M194.48,91c-12.26,0-22-4.38-29-13a32.17,32.17,0,0,1-6.57-15.48A72.86,72.86,0,0,1,158.3,52V20.13c-.74-.16-1.79-.33-3.22-.51l-6.3-.77v-17H189V19.05l-6.52.6c-1.35.12-2.35.25-3.09.37V52c0,7.88,1.59,11.59,2.94,13.31,1.79,2.29,5.07,5.35,12.86,5.35,4,0,7.11-.93,9.48-2.83a13.43,13.43,0,0,0,3.77-4.64c1.35-2.88,2-6.78,2-11.57V20.07c-.73-.13-1.74-.29-3.12-.44L201,19V1.88h38.75V19.06l-6.52.59c-1.34.12-2.35.25-3.09.38V51.65c0,11.31-2.8,20.46-8.33,27.19C215.19,86.89,206,91,194.48,91Z"/><path class="cls-2" d="M156,9h25.92v3.47q-6.66.62-8.06,1.92c-1,.94-1.55,2.81-1.55,5.63V52q0,12,4.45,17.71,6.33,8.12,18.52,8.11,8.47,0,14-4.4A20.81,20.81,0,0,0,215,66.28q2.72-5.82,2.72-14.63V20.06c0-2.85-.58-4.72-1.73-5.63s-3.69-1.48-7.78-1.92V9h24.42v3.47c-4.5.41-7.25,1.09-8.25,2.06S223,17.24,223,20.06V51.65q0,14.49-6.7,22.64-7.83,9.51-21.8,9.52-15,0-23.39-10.36A24.9,24.9,0,0,1,166,61.35a64.21,64.21,0,0,1-.57-9.32v-32q0-4.23-1.73-5.53t-7.78-2Z"/><path class="cls-1" d="M274.78,89.14V71.9l3.41-.28L263,53.14l-4.39,4V71c.71.12,1.69.25,3,.38l6.47.63V89.14H227.86V71.93l6.55-.56c1.29-.11,2.26-.24,3-.36,0,0,0-51,0-51.05-.67-.11-1.59-.22-2.82-.3l-6.69-.45V1.88h40.21V19l-6.51.61c-1.28.11-2.25.25-3,.37V30.28l11.48-10.89-1.63-.09V1.88h40.26V19l-6.43.67a13.83,13.83,0,0,0-4.87,1.23,15.93,15.93,0,0,0-3.23,2.47L278.09,38.47l25,29.35a10.66,10.66,0,0,0,6.88,3.61l6,1V89.14Z"/><path class="cls-2" d="M235,9H260.9v3.47c-4.38.41-7.08,1.09-8.11,2.06s-1.36,2.67-1.36,5.49V47L282.79,17.2a2.7,2.7,0,0,0,1.08-1.88c0-.72-.92-1.37-2.77-2a22.34,22.34,0,0,0-5.48-.84V9h25.92v3.47a20.45,20.45,0,0,0-7.45,2,22.81,22.81,0,0,0-4.83,3.6L268.21,37.92,297.6,72.46a17.84,17.84,0,0,0,11.21,6.05V82H282V78.51c5.43-.44,8.15-1.31,8.15-2.63a4.55,4.55,0,0,0-1.36-2.71l-25-30.43L251.43,54V71q0,4.32,1.78,5.77,1.46,1.17,7.69,1.78V82H235V78.51c4.37-.38,7.07-1.06,8.1-2.06s1.41-2.71,1.41-5.49V20.06c0-2.88-.51-4.75-1.55-5.63s-3.78-1.64-8-1.92Z"/><path class="cls-1" d="M349.54,91c-13.79,0-24.64-5.24-32.25-15.57-5.9-8-8.9-18-8.9-29.7,0-12.31,3.5-22.81,10.39-31.22C326.6,4.88,337,0,349.63,0c13.44,0,24.22,5.47,32.06,16.27,6,8.21,9,18.13,9,29.47,0,10.53-2.46,19.74-7.3,27.38C375.82,85,364.43,91,349.54,91Zm-.09-71.43a15.58,15.58,0,0,0-14,7.46c-3.12,4.63-4.69,10.86-4.69,18.56,0,6.39,1.16,11.85,3.44,16.22a18.23,18.23,0,0,0,6,6.94,16.13,16.13,0,0,0,9.31,2.72A15.61,15.61,0,0,0,363,64.67c3.51-4.69,5.29-11.13,5.29-19.16,0-8.27-1.82-14.83-5.41-19.49C359.49,21.59,355.22,19.54,349.45,19.54Z"/><path class="cls-2" d="M349.63,7.17q16.61,0,26.25,13.31,7.65,10.5,7.64,25.26,0,13.78-6.18,23.54-9.29,14.52-27.8,14.53-17.16,0-26.48-12.66-7.5-10.12-7.5-25.45,0-16,8.76-26.67Q334,7.16,349.63,7.17Zm-.18,5.2A22.65,22.65,0,0,0,329.53,23q-5.91,8.76-5.91,22.55,0,11.38,4.26,19.54a25.54,25.54,0,0,0,8.35,9.57,23.32,23.32,0,0,0,13.31,3.93A22.75,22.75,0,0,0,368.76,69q6.71-9,6.7-23.44,0-14.91-6.89-23.86A22.86,22.86,0,0,0,349.45,12.37Z"/><path class="cls-1" d="M429.65,91c-12.26,0-22-4.38-29-13a32.06,32.06,0,0,1-6.56-15.48A71.3,71.3,0,0,1,393.47,52V20.13c-.74-.16-1.78-.33-3.22-.51l-6.3-.77v-17h40.26V19.05l-6.52.6c-1.34.12-2.35.25-3.09.37V52c0,7.88,1.6,11.59,2.94,13.31,1.79,2.29,5.07,5.35,12.86,5.35,4,0,7.11-.93,9.48-2.83a13.43,13.43,0,0,0,3.77-4.64c1.35-2.88,2-6.78,2-11.57V20.07c-.73-.13-1.74-.29-3.11-.44L436.17,19V1.88h38.76V19.06l-6.53.59c-1.34.12-2.34.25-3.08.38V51.65c0,11.31-2.81,20.46-8.34,27.19C450.36,86.89,441.16,91,429.65,91Z"/><path class="cls-2" d="M391.12,9H417v3.47c-4.44.41-7.12,1.05-8.06,1.92s-1.55,2.81-1.55,5.63V52q0,12,4.45,17.71,6.33,8.12,18.52,8.11,8.49,0,14-4.4a20.81,20.81,0,0,0,5.76-7.17q2.73-5.82,2.72-14.63V20.06c0-2.85-.58-4.72-1.73-5.63s-3.69-1.48-7.78-1.92V9h24.42v3.47c-4.5.41-7.25,1.09-8.25,2.06s-1.36,2.67-1.36,5.49V51.65q0,14.49-6.7,22.64-7.83,9.51-21.8,9.52-15,0-23.39-10.36a24.9,24.9,0,0,1-5.06-12.1,64.21,64.21,0,0,1-.57-9.32v-32c0-2.82-.57-4.66-1.73-5.53s-3.69-1.52-7.78-2Z"/><path class="cls-1" d="M463.69,89.14v-17l6.33-.74c1.44-.17,2.47-.34,3.18-.49V20a22.19,22.19,0,0,0-2.89-.36l-6.62-.51V1.88h40.07c13.45,0,24.22,4.41,32,13.12,7.21,8,10.87,18.27,10.87,30.42,0,13.49-4,24.35-12.06,32.27-7.67,7.6-18.17,11.45-31.2,11.45ZM494.43,70c.58,0,1.33.08,2.3.08h5.48c7.8,0,13.37-2.1,17-6.42,3.45-4,5.19-10.15,5.19-18.19,0-8.74-2-15.13-5.92-19C514.8,22.77,509.35,21,501.84,21h-7.41Z"/><path class="cls-2" d="M470.85,9h32.91q17.06,0,26.67,10.74,9,10.06,9.05,25.64,0,17.34-9.94,27.18Q520.08,82,503.38,82H470.85V78.51c4-.47,6.57-1.14,7.69-2s1.83-2.78,1.83-5.53V20.06c0-2.82-.64-4.69-1.92-5.63s-3.88-1.64-7.6-1.92Zm16.41,11.81V70.17q0,4.26,1.73,5.57t7.74,1.46h5.48q14.91,0,22.5-9,6.9-8.05,6.89-22.82,0-16.18-8.06-24.1-7.59-7.5-21.7-7.5h-7.22c-2.69,0-4.56.49-5.63,1.46S487.26,18.17,487.26,20.85Z"/><path class="cls-1" d="M591.89,89.14V71.92l7.11-.6-3.81-8.61H573.35l-3.73,8.63,7.07.39V89.14H539V72.28l6.16-.87a5.12,5.12,0,0,0,4.57-3.48l29-67.51h13.13l28.31,65.35c1.53,3.53,2.72,4.62,3.05,4.87a6.77,6.77,0,0,0,2.83.74l6.43.67V89.14Zm-4.32-45.55-3.26-7.65-3.23,7.65Z"/><path class="cls-2" d="M583.45,7.59h3.7l26.44,61q2.38,5.53,5.29,7.73a12.9,12.9,0,0,0,6.43,2.16V82H599.06V78.51q8.94-.75,9-3.61a12.5,12.5,0,0,0-1.27-3.8l-6.89-15.56H568.63L562.4,70a12.49,12.49,0,0,0-1.27,4.45q0,3.61,8.39,4.08V82H546.18V78.51a12.21,12.21,0,0,0,10.17-7.78Zm.84,10-14,33.19H598.4Z"/><path class="cls-1" d="M622.73,89.14V72.07l6.41-.69a37.28,37.28,0,0,0,4.3-.66c0-.26,0-.56,0-.93V21.23c0-.43,0-.79,0-1.07a38,38,0,0,0-4.1-.51l-6.6-.53V1.88h42.93V19.07l-6.53.58a37.35,37.35,0,0,0-4.18.57c0,.28,0,.61,0,1V69.79c0,.39,0,.7,0,1a34.37,34.37,0,0,0,4.23.63l6.47.63V89.14Z"/><path class="cls-2" d="M629.9,9h28.59v3.47q-7.35.66-9.09,2.34c-1.09,1.1-1.64,3.22-1.64,6.38V69.79q0,4.92,2.11,6.56,1.88,1.5,8.62,2.16V82H629.9V78.51c4.69-.5,7.62-1.27,8.81-2.3s1.92-3.23,1.92-6.42V21.23q0-5.78-2.76-7.17c-1.41-.72-4.06-1.24-8-1.55Z"/></g></g></svg>